<svg width="512" height="512" viewBox="0 0 512 512" xmlns="http://www.w3.org/2000/svg" ><rect width="100%" height="100%" fill="white"/>
<polygon points="333.699,0 324.916,46.4585 324.916,46.4585 309.723,50.2064 309.723,50.2064 272.157,32.4 272.157,32.4 263.6,0 263.6,0 333.699,0 " fill="#1d1d9b" stroke="white" stroke-width="2" />
<polygon points="77.6596,8.32122 35.4087,50.1678 35.4087,50.1678 0,37.0058 0,37.0058 0,0 0,0 78.9373,0 78.9373,0 77.6596,8.32122 " fill="#1d1d9b" stroke="white" stroke-width="2" />
<polygon points="454.207,40.2646 400.458,57.1825 400.458,57.1825 393.471,51.4873 393.471,51.4873 388.788,0 388.788,0 455.638,0 455.638,0 454.207,40.2646 " fill="#1d1d9b" stroke="white" stroke-width="2" />
<polygon points="512,52.4438 469.314,57.2253 469.314,57.2253 454.207,40.2646 454.207,40.2646 455.638,0 455.638,0 512,0 512,0 512,52.4438 " fill="#1d1d9b" stroke="white" stroke-width="2" />
<polygon points="393.471,51.4873 345.257,64.2201 345.257,64.2201 324.916,46.4585 324.916,46.4585 333.699,0 333.699,0 388.788,0 388.788,0 393.471,51.4873 " fill="#1d1d9b" stroke="white" stroke-width="2" />
<polygon points="151.189,56.1032 126.685,71.5603 126.685,71.5603 99.8887,64.8438 99.8887,64.8438 77.6596,8.32122 77.6596,8.32122 78.9373,0 78.9373,0 153.857,0 153.857,0 151.189,56.1032 " fill="#1d1d9b" stroke="white" stroke-width="2" />
<polygon points="272.157,32.4 246.272,67.5659 246.272,67.5659 216.475,68.4212 216.475,68.4212 214.838,0 214.838,0 263.6,0 263.6,0 272.157,32.4 " fill="#1d1d9b" stroke="white" stroke-width="2" />
<polygon points="216.475,68.4212 201.671,81.1313 201.671,81.1313 151.189,56.1032 151.189,56.1032 153.857,0 153.857,0 214.838,0 214.838,0 216.475,68.4212 " fill="#1d1d9b" stroke="white" stroke-width="2" />
<polygon points="99.8887,64.8438 79.8233,78.1195 79.8233,78.1195 37.9786,56.6044 37.9786,56.6044 35.4087,50.1678 35.4087,50.1678 77.6596,8.32122 77.6596,8.32122 99.8887,64.8438 " fill="#1d1d9b" stroke="white" stroke-width="2" />
<polygon points="309.723,50.2064 282.962,94.2281 282.962,94.2281 277.896,94.8419 277.896,94.8419 246.272,67.5659 246.272,67.5659 272.157,32.4 272.157,32.4 309.723,50.2064 " fill="#1d1d9b" stroke="white" stroke-width="2" />
<polygon points="469.314,57.2253 462.489,86.9557 462.489,86.9557 412.066,100.37 412.066,100.37 411.119,99.7454 411.119,99.7454 400.458,57.1825 400.458,57.1825 454.207,40.2646 454.207,40.2646 469.314,57.2253 " fill="#1d1d9b" stroke="white" stroke-width="2" />
<polygon points="37.9786,56.6044 27.3723,95.8236 27.3723,95.8236 0,110.605 0,110.605 0,37.0058 0,37.0058 35.4087,50.1678 35.4087,50.1678 37.9786,56.6044 " fill="#1d1d9b" stroke="white" stroke-width="2" />
<polygon points="79.8233,78.1195 68.2811,107.326 68.2811,107.326 27.3723,95.8236 27.3723,95.8236 37.9786,56.6044 37.9786,56.6044 79.8233,78.1195 " fill="#1d1d9b" stroke="white" stroke-width="2" />
<polygon points="345.257,64.2201 342.909,100.925 342.909,100.925 316.462,114.472 316.462,114.472 282.962,94.2281 282.962,94.2281 309.723,50.2064 309.723,50.2064 324.916,46.4585 324.916,46.4585 345.257,64.2201 " fill="#1d1d9b" stroke="white" stroke-width="2" />
<polygon points="512,112.18 480.143,111.228 480.143,111.228 462.489,86.9557 462.489,86.9557 469.314,57.2253 469.314,57.2253 512,52.4438 512,52.4438 512,112.18 " fill="#1d1d9b" stroke="white" stroke-width="2" />
<polygon points="411.119,99.7454 368.09,117.76 368.09,117.76 342.909,100.925 342.909,100.925 345.257,64.2201 345.257,64.2201 393.471,51.4873 393.471,51.4873 400.458,57.1825 400.458,57.1825 411.119,99.7454 " fill="#1d1d9b" stroke="white" stroke-width="2" />
<polygon points="201.285,93.7759 166.524,140.512 166.524,140.512 144.576,141.782 144.576,141.782 129.308,124.722 129.308,124.722 126.685,71.5603 126.685,71.5603 151.189,56.1032 151.189,56.1032 201.671,81.1313 201.671,81.1313 201.285,93.7759 " fill="#1d1d9b" stroke="white" stroke-width="2" />
<polygon points="277.896,94.8419 249.357,140.615 249.357,140.615 201.285,93.7759 201.285,93.7759 201.671,81.1313 201.671,81.1313 216.475,68.4212 216.475,68.4212 246.272,67.5659 246.272,67.5659 277.896,94.8419 " fill="#1d1d9b" stroke="white" stroke-width="2" />
<polygon points="129.308,124.722 74.1694,126.202 74.1694,126.202 68.2811,107.326 68.2811,107.326 79.8233,78.1195 79.8233,78.1195 99.8887,64.8438 99.8887,64.8438 126.685,71.5603 126.685,71.5603 129.308,124.722 " fill="#1d1d9b" stroke="white" stroke-width="2" />
<polygon points="480.143,111.228 458.304,144.842 458.304,144.842 426.353,135.857 426.353,135.857 412.066,100.37 412.066,100.37 462.489,86.9557 462.489,86.9557 480.143,111.228 " fill="#1d1d9b" stroke="white" stroke-width="2" />
<polygon points="74.1694,126.202 60.8766,152.474 60.8766,152.474 0,132.258 0,132.258 0,110.605 0,110.605 27.3723,95.8236 27.3723,95.8236 68.2811,107.326 68.2811,107.326 74.1694,126.202 " fill="#1d1d9b" stroke="white" stroke-width="2" />
<polygon points="316.462,114.472 311.687,148.253 311.687,148.253 249.907,145.067 249.907,145.067 249.357,140.615 249.357,140.615 277.896,94.8419 277.896,94.8419 282.962,94.2281 282.962,94.2281 316.462,114.472 " fill="#1d1d9b" stroke="white" stroke-width="2" />
<polygon points="368.09,117.76 367.46,157.795 367.46,157.795 343.608,165.306 343.608,165.306 314.907,153.99 314.907,153.99 311.687,148.253 311.687,148.253 316.462,114.472 316.462,114.472 342.909,100.925 342.909,100.925 368.09,117.76 " fill="#1d1d9b" stroke="white" stroke-width="2" />
<polygon points="426.353,135.857 398.434,172.049 398.434,172.049 389.418,171.81 389.418,171.81 367.46,157.795 367.46,157.795 368.09,117.76 368.09,117.76 411.119,99.7454 411.119,99.7454 412.066,100.37 412.066,100.37 426.353,135.857 " fill="#1d1d9b" stroke="white" stroke-width="2" />
<polygon points="249.357,140.615 249.907,145.067 249.907,145.067 245.138,157.249 245.138,157.249 206.843,181.265 206.843,181.265 166.524,140.512 166.524,140.512 201.285,93.7759 201.285,93.7759 249.357,140.615 " fill="#1d1d9b" stroke="white" stroke-width="2" />
<polygon points="512,173.604 469.939,169.616 469.939,169.616 458.304,144.842 458.304,144.842 480.143,111.228 480.143,111.228 512,112.18 512,112.18 512,173.604 " fill="#1d1d9b" stroke="white" stroke-width="2" />
<polygon points="144.576,141.782 126.83,174.82 126.83,174.82 64.5674,169.44 64.5674,169.44 60.8766,152.474 60.8766,152.474 74.1694,126.202 74.1694,126.202 129.308,124.722 129.308,124.722 144.576,141.782 " fill="#1d1d9b" stroke="white" stroke-width="2" />
<polygon points="64.5674,169.44 59.3833,182.507 59.3833,182.507 0,213.702 0,213.702 0,132.258 0,132.258 60.8766,152.474 60.8766,152.474 64.5674,169.44 " fill="#1d1d9b" stroke="white" stroke-width="2" />
<polygon points="314.907,153.99 286.953,206.333 286.953,206.333 245.138,157.249 245.138,157.249 249.907,145.067 249.907,145.067 311.687,148.253 311.687,148.253 314.907,153.99 " fill="#1d1d9b" stroke="white" stroke-width="2" />
<polygon points="469.939,169.616 445.891,203.563 445.891,203.563 429.035,203.057 429.035,203.057 398.434,172.049 398.434,172.049 426.353,135.857 426.353,135.857 458.304,144.842 458.304,144.842 469.939,169.616 " fill="#1d1d9b" stroke="white" stroke-width="2" />
<polygon points="206.843,181.265 204.66,194.026 204.66,194.026 157.735,227.35 157.735,227.35 133.173,212.255 133.173,212.255 126.83,174.82 126.83,174.82 144.576,141.782 144.576,141.782 166.524,140.512 166.524,140.512 206.843,181.265 " fill="#1d1d9b" stroke="white" stroke-width="2" />
<polygon points="343.608,165.306 336.99,208.503 336.99,208.503 302.981,221.377 302.981,221.377 287.83,211.526 287.83,211.526 286.953,206.333 286.953,206.333 314.907,153.99 314.907,153.99 343.608,165.306 " fill="#1d1d9b" stroke="white" stroke-width="2" />
<polygon points="389.418,171.81 365.597,220.574 365.597,220.574 336.99,208.503 336.99,208.503 343.608,165.306 343.608,165.306 367.46,157.795 367.46,157.795 389.418,171.81 " fill="#1d1d9b" stroke="white" stroke-width="2" />
<polygon points="133.173,212.255 88.7439,231.675 88.7439,231.675 59.3833,182.507 59.3833,182.507 64.5674,169.44 64.5674,169.44 126.83,174.82 126.83,174.82 133.173,212.255 " fill="#1d1d9b" stroke="white" stroke-width="2" />
<polygon points="286.953,206.333 287.83,211.526 287.83,211.526 240.693,237.455 240.693,237.455 204.66,194.026 204.66,194.026 206.843,181.265 206.843,181.265 245.138,157.249 245.138,157.249 286.953,206.333 " fill="#1d1d9b" stroke="white" stroke-width="2" />
<polygon points="512,246.317 474.265,243.001 474.265,243.001 445.891,203.563 445.891,203.563 469.939,169.616 469.939,169.616 512,173.604 512,173.604 512,246.317 " fill="#1d1d9b" stroke="white" stroke-width="2" />
<polygon points="429.035,203.057 387.952,254.453 387.952,254.453 383.833,254.637 383.833,254.637 365.597,220.574 365.597,220.574 389.418,171.81 389.418,171.81 398.434,172.049 398.434,172.049 429.035,203.057 " fill="#1d1d9b" stroke="white" stroke-width="2" />
<polygon points="88.7439,231.675 75.9958,259.78 75.9958,259.78 64.6502,260.612 64.6502,260.612 0,215.858 0,215.858 0,213.702 0,213.702 59.3833,182.507 59.3833,182.507 88.7439,231.675 " fill="#1d1d9b" stroke="white" stroke-width="2" />
<polygon points="365.597,220.574 383.833,254.637 383.833,254.637 370.81,266.096 370.81,266.096 312.209,256.571 312.209,256.571 302.981,221.377 302.981,221.377 336.99,208.503 336.99,208.503 365.597,220.574 " fill="#1d1d9b" stroke="white" stroke-width="2" />
<polygon points="240.693,237.455 236.348,259.626 236.348,259.626 223.001,268.118 223.001,268.118 163.07,257.593 163.07,257.593 157.735,227.35 157.735,227.35 204.66,194.026 204.66,194.026 240.693,237.455 " fill="#1d1d9b" stroke="white" stroke-width="2" />
<polygon points="474.265,243.001 434.927,282.001 434.927,282.001 387.952,254.453 387.952,254.453 429.035,203.057 429.035,203.057 445.891,203.563 445.891,203.563 474.265,243.001 " fill="#1d1d9b" stroke="white" stroke-width="2" />
<polygon points="163.07,257.593 159.983,263.327 159.983,263.327 100.583,288.833 100.583,288.833 99.5224,288.633 99.5224,288.633 75.9958,259.78 75.9958,259.78 88.7439,231.675 88.7439,231.675 133.173,212.255 133.173,212.255 157.735,227.35 157.735,227.35 163.07,257.593 " fill="#1d1d9b" stroke="white" stroke-width="2" />
<polygon points="312.209,256.571 292.608,289.426 292.608,289.426 277.376,290.057 277.376,290.057 236.348,259.626 236.348,259.626 240.693,237.455 240.693,237.455 287.83,211.526 287.83,211.526 302.981,221.377 302.981,221.377 312.209,256.571 " fill="#1d1d9b" stroke="white" stroke-width="2" />
<polygon points="64.6502,260.612 11.0948,310.595 11.0948,310.595 0,309.987 0,309.987 0,215.858 0,215.858 64.6502,260.612 " fill="#1d1d9b" stroke="white" stroke-width="2" />
<polygon points="370.81,266.096 360.121,310.752 360.121,310.752 313.954,315.109 313.954,315.109 292.608,289.426 292.608,289.426 312.209,256.571 312.209,256.571 370.81,266.096 " fill="#1d1d9b" stroke="white" stroke-width="2" />
<polygon points="512,318.491 441.836,318.387 441.836,318.387 434.927,282.001 434.927,282.001 474.265,243.001 474.265,243.001 512,246.317 512,246.317 512,318.491 " fill="#1d1d9b" stroke="white" stroke-width="2" />
<polygon points="223.001,268.118 211.272,317.4 211.272,317.4 170.181,311.879 170.181,311.879 159.983,263.327 159.983,263.327 163.07,257.593 163.07,257.593 223.001,268.118 " fill="#1d1d9b" stroke="white" stroke-width="2" />
<polygon points="170.181,311.879 152.066,331.894 152.066,331.894 137.658,331.721 137.658,331.721 100.583,288.833 100.583,288.833 159.983,263.327 159.983,263.327 170.181,311.879 " fill="#1d1d9b" stroke="white" stroke-width="2" />
<polygon points="441.836,318.387 440.262,320.843 440.262,320.843 377.799,336.219 377.799,336.219 360.121,310.752 360.121,310.752 370.81,266.096 370.81,266.096 383.833,254.637 383.833,254.637 387.952,254.453 387.952,254.453 434.927,282.001 434.927,282.001 441.836,318.387 " fill="#1d1d9b" stroke="white" stroke-width="2" />
<polygon points="277.376,290.057 247.621,334.896 247.621,334.896 221.958,333.428 221.958,333.428 211.272,317.4 211.272,317.4 223.001,268.118 223.001,268.118 236.348,259.626 236.348,259.626 277.376,290.057 " fill="#1d1d9b" stroke="white" stroke-width="2" />
<polygon points="99.5224,288.633 74.1548,329.504 74.1548,329.504 39.9662,331.482 39.9662,331.482 11.0948,310.595 11.0948,310.595 64.6502,260.612 64.6502,260.612 75.9958,259.78 75.9958,259.78 99.5224,288.633 " fill="#1d1d9b" stroke="white" stroke-width="2" />
<polygon points="313.954,315.109 304.628,353.295 304.628,353.295 257.007,345.046 257.007,345.046 247.621,334.896 247.621,334.896 277.376,290.057 277.376,290.057 292.608,289.426 292.608,289.426 313.954,315.109 " fill="#1d1d9b" stroke="white" stroke-width="2" />
<polygon points="137.658,331.721 112.572,358.884 112.572,358.884 91.2229,356.484 91.2229,356.484 74.1548,329.504 74.1548,329.504 99.5224,288.633 99.5224,288.633 100.583,288.833 100.583,288.833 137.658,331.721 " fill="#1d1d9b" stroke="white" stroke-width="2" />
<polygon points="221.958,333.428 214.493,347.318 214.493,347.318 174.272,367.617 174.272,367.617 171.526,366.927 171.526,366.927 152.066,331.894 152.066,331.894 170.181,311.879 170.181,311.879 211.272,317.4 211.272,317.4 221.958,333.428 " fill="#1d1d9b" stroke="white" stroke-width="2" />
<polygon points="377.799,336.219 372.366,358.628 372.366,358.628 326.796,368.724 326.796,368.724 304.88,353.868 304.88,353.868 304.628,353.295 304.628,353.295 313.954,315.109 313.954,315.109 360.121,310.752 360.121,310.752 377.799,336.219 " fill="#1d1d9b" stroke="white" stroke-width="2" />
<polygon points="512,372.63 455.729,383.188 455.729,383.188 446.575,377.081 446.575,377.081 440.262,320.843 440.262,320.843 441.836,318.387 441.836,318.387 512,318.491 512,318.491 512,372.63 " fill="#1d1d9b" stroke="white" stroke-width="2" />
<polygon points="39.9033,378.827 0,394.502 0,394.502 0,309.987 0,309.987 11.0948,310.595 11.0948,310.595 39.9662,331.482 39.9662,331.482 39.9033,378.827 " fill="#1d1d9b" stroke="white" stroke-width="2" />
<polygon points="91.2229,356.484 66.8015,392.031 66.8015,392.031 39.9033,378.827 39.9033,378.827 39.9662,331.482 39.9662,331.482 74.1548,329.504 74.1548,329.504 91.2229,356.484 " fill="#1d1d9b" stroke="white" stroke-width="2" />
<polygon points="446.575,377.081 412.542,391.609 412.542,391.609 382.484,380.108 382.484,380.108 372.366,358.628 372.366,358.628 377.799,336.219 377.799,336.219 440.262,320.843 440.262,320.843 446.575,377.081 " fill="#1d1d9b" stroke="white" stroke-width="2" />
<polygon points="171.526,366.927 145.749,389.003 145.749,389.003 127.322,387.913 127.322,387.913 112.572,358.884 112.572,358.884 137.658,331.721 137.658,331.721 152.066,331.894 152.066,331.894 171.526,366.927 " fill="#1d1d9b" stroke="white" stroke-width="2" />
<polygon points="257.007,345.046 254.409,390.147 254.409,390.147 253.035,391.424 253.035,391.424 224.952,389.229 224.952,389.229 214.493,347.318 214.493,347.318 221.958,333.428 221.958,333.428 247.621,334.896 247.621,334.896 257.007,345.046 " fill="#1d1d9b" stroke="white" stroke-width="2" />
<polygon points="304.88,353.868 283.853,388.509 283.853,388.509 254.409,390.147 254.409,390.147 257.007,345.046 257.007,345.046 304.628,353.295 304.628,353.295 304.88,353.868 " fill="#1d1d9b" stroke="white" stroke-width="2" />
<polygon points="224.952,389.229 211.365,400.595 211.365,400.595 194.083,398.042 194.083,398.042 174.272,367.617 174.272,367.617 214.493,347.318 214.493,347.318 224.952,389.229 " fill="#1d1d9b" stroke="white" stroke-width="2" />
<polygon points="127.322,387.913 111.634,408.444 111.634,408.444 67.331,393.391 67.331,393.391 66.8015,392.031 66.8015,392.031 91.2229,356.484 91.2229,356.484 112.572,358.884 112.572,358.884 127.322,387.913 " fill="#1d1d9b" stroke="white" stroke-width="2" />
<polygon points="326.688,407.148 306.233,422.259 306.233,422.259 283.853,388.509 283.853,388.509 304.88,353.868 304.88,353.868 326.796,368.724 326.796,368.724 326.688,407.148 " fill="#1d1d9b" stroke="white" stroke-width="2" />
<polygon points="382.484,380.108 360.879,415.069 360.879,415.069 326.688,407.148 326.688,407.148 326.796,368.724 326.796,368.724 372.366,358.628 372.366,358.628 382.484,380.108 " fill="#1d1d9b" stroke="white" stroke-width="2" />
<polygon points="194.083,398.042 166.216,428.798 166.216,428.798 165.501,428.937 165.501,428.937 145.749,389.003 145.749,389.003 171.526,366.927 171.526,366.927 174.272,367.617 174.272,367.617 194.083,398.042 " fill="#1d1d9b" stroke="white" stroke-width="2" />
<polygon points="512,423.633 477.853,429.949 477.853,429.949 462.969,419.72 462.969,419.72 455.729,383.188 455.729,383.188 512,372.63 512,372.63 512,423.633 " fill="#1d1d9b" stroke="white" stroke-width="2" />
<polygon points="306.233,422.259 305.695,423.627 305.695,423.627 292.338,430.397 292.338,430.397 255.886,419.625 255.886,419.625 253.035,391.424 253.035,391.424 254.409,390.147 254.409,390.147 283.853,388.509 283.853,388.509 306.233,422.259 " fill="#1d1d9b" stroke="white" stroke-width="2" />
<polygon points="60.7684,422.068 40.2359,434.476 40.2359,434.476 0,413.337 0,413.337 0,394.502 0,394.502 39.9033,378.827 39.9033,378.827 66.8015,392.031 66.8015,392.031 67.331,393.391 67.331,393.391 60.7684,422.068 " fill="#1d1d9b" stroke="white" stroke-width="2" />
<polygon points="255.886,419.625 244.554,433.146 244.554,433.146 217.746,426.665 217.746,426.665 211.365,400.595 211.365,400.595 224.952,389.229 224.952,389.229 253.035,391.424 253.035,391.424 255.886,419.625 " fill="#1d1d9b" stroke="white" stroke-width="2" />
<polygon points="165.501,428.937 156.788,437.885 156.788,437.885 114.121,427.842 114.121,427.842 111.634,408.444 111.634,408.444 127.322,387.913 127.322,387.913 145.749,389.003 145.749,389.003 165.501,428.937 " fill="#1d1d9b" stroke="white" stroke-width="2" />
<polygon points="412.542,391.609 412.377,444.728 412.377,444.728 388.297,447.668 388.297,447.668 368.724,437.654 368.724,437.654 360.879,415.069 360.879,415.069 382.484,380.108 382.484,380.108 412.542,391.609 " fill="#1d1d9b" stroke="white" stroke-width="2" />
<polygon points="462.969,419.72 420.204,449.264 420.204,449.264 412.377,444.728 412.377,444.728 412.542,391.609 412.542,391.609 446.575,377.081 446.575,377.081 455.729,383.188 455.729,383.188 462.969,419.72 " fill="#1d1d9b" stroke="white" stroke-width="2" />
<polygon points="114.121,427.842 98.6874,448.555 98.6874,448.555 90.4828,448.705 90.4828,448.705 60.7684,422.068 60.7684,422.068 67.331,393.391 67.331,393.391 111.634,408.444 111.634,408.444 114.121,427.842 " fill="#1d1d9b" stroke="white" stroke-width="2" />
<polygon points="217.746,426.665 202.319,444.867 202.319,444.867 166.216,428.798 166.216,428.798 194.083,398.042 194.083,398.042 211.365,400.595 211.365,400.595 217.746,426.665 " fill="#1d1d9b" stroke="white" stroke-width="2" />
<polygon points="368.724,437.654 331.992,463.34 331.992,463.34 330.689,463.174 330.689,463.174 305.695,423.627 305.695,423.627 306.233,422.259 306.233,422.259 326.688,407.148 326.688,407.148 360.879,415.069 360.879,415.069 368.724,437.654 " fill="#1d1d9b" stroke="white" stroke-width="2" />
<polygon points="292.338,430.397 274.331,466.302 274.331,466.302 266.264,466.955 266.264,466.955 247.652,451.636 247.652,451.636 244.554,433.146 244.554,433.146 255.886,419.625 255.886,419.625 292.338,430.397 " fill="#1d1d9b" stroke="white" stroke-width="2" />
<polygon points="247.652,451.636 214.35,469.323 214.35,469.323 207.092,467.159 207.092,467.159 202.319,444.867 202.319,444.867 217.746,426.665 217.746,426.665 244.554,433.146 244.554,433.146 247.652,451.636 " fill="#1d1d9b" stroke="white" stroke-width="2" />
<polygon points="40.2359,434.476 38.7091,467.373 38.7091,467.373 0,469.826 0,469.826 0,413.337 0,413.337 40.2359,434.476 " fill="#1d1d9b" stroke="white" stroke-width="2" />
<polygon points="477.853,429.949 475.283,465.679 475.283,465.679 452.101,471.65 452.101,471.65 422.388,453.393 422.388,453.393 420.204,449.264 420.204,449.264 462.969,419.72 462.969,419.72 477.853,429.949 " fill="#1d1d9b" stroke="white" stroke-width="2" />
<polygon points="90.4828,448.705 65.994,471.783 65.994,471.783 40.354,469.02 40.354,469.02 38.7091,467.373 38.7091,467.373 40.2359,434.476 40.2359,434.476 60.7684,422.068 60.7684,422.068 90.4828,448.705 " fill="#1d1d9b" stroke="white" stroke-width="2" />
<polygon points="512,470.133 484.691,472.051 484.691,472.051 475.283,465.679 475.283,465.679 477.853,429.949 477.853,429.949 512,423.633 512,423.633 512,470.133 " fill="#1d1d9b" stroke="white" stroke-width="2" />
<polygon points="156.788,437.885 154.238,464.469 154.238,464.469 140.165,476.365 140.165,476.365 112.569,469.981 112.569,469.981 98.6874,448.555 98.6874,448.555 114.121,427.842 114.121,427.842 156.788,437.885 " fill="#1d1d9b" stroke="white" stroke-width="2" />
<polygon points="207.092,467.159 188.157,481.963 188.157,481.963 154.238,464.469 154.238,464.469 156.788,437.885 156.788,437.885 165.501,428.937 165.501,428.937 166.216,428.798 166.216,428.798 202.319,444.867 202.319,444.867 207.092,467.159 " fill="#1d1d9b" stroke="white" stroke-width="2" />
<polygon points="330.689,463.174 300.562,487.109 300.562,487.109 274.331,466.302 274.331,466.302 292.338,430.397 292.338,430.397 305.695,423.627 305.695,423.627 330.689,463.174 " fill="#1d1d9b" stroke="white" stroke-width="2" />
<polygon points="388.297,447.668 369.059,509.567 369.059,509.567 331.992,463.34 331.992,463.34 368.724,437.654 368.724,437.654 388.297,447.668 " fill="#1d1d9b" stroke="white" stroke-width="2" />
<polygon points="266.264,466.955 241.404,503.427 241.404,503.427 214.35,469.323 214.35,469.323 247.652,451.636 247.652,451.636 266.264,466.955 " fill="#1d1d9b" stroke="white" stroke-width="2" />
<polygon points="112.569,469.981 89.379,512 89.379,512 86.2376,512 86.2376,512 65.994,471.783 65.994,471.783 90.4828,448.705 90.4828,448.705 98.6874,448.555 98.6874,448.555 112.569,469.981 " fill="#1d1d9b" stroke="white" stroke-width="2" />
<polygon points="422.388,453.393 408.736,512 408.736,512 369.603,512 369.603,512 369.059,509.567 369.059,509.567 388.297,447.668 388.297,447.668 412.377,444.728 412.377,444.728 420.204,449.264 420.204,449.264 422.388,453.393 " fill="#1d1d9b" stroke="white" stroke-width="2" />
<polygon points="452.101,471.65 448.966,512 448.966,512 408.736,512 408.736,512 422.388,453.393 422.388,453.393 452.101,471.65 " fill="#1d1d9b" stroke="white" stroke-width="2" />
<polygon points="484.691,472.051 482.059,512 482.059,512 448.966,512 448.966,512 452.101,471.65 452.101,471.65 475.283,465.679 475.283,465.679 484.691,472.051 " fill="#1d1d9b" stroke="white" stroke-width="2" />
<polygon points="40.354,469.02 37.06,512 37.06,512 0,512 0,512 0,469.826 0,469.826 38.7091,467.373 38.7091,467.373 40.354,469.02 " fill="#1d1d9b" stroke="white" stroke-width="2" />
<polygon points="188.157,481.963 186.173,512 186.173,512 142.35,512 142.35,512 140.165,476.365 140.165,476.365 154.238,464.469 154.238,464.469 188.157,481.963 " fill="#1d1d9b" stroke="white" stroke-width="2" />
<polygon points="482.059,512 484.691,472.051 484.691,472.051 512,470.133 512,470.133 512,512 512,512 482.059,512 " fill="#1d1d9b" stroke="white" stroke-width="2" />
<polygon points="37.06,512 40.354,469.02 40.354,469.02 65.994,471.783 65.994,471.783 86.2376,512 86.2376,512 37.06,512 " fill="#1d1d9b" stroke="white" stroke-width="2" />
<polygon points="300.562,487.109 300.314,512 300.314,512 241.545,512 241.545,512 241.404,503.427 241.404,503.427 266.264,466.955 266.264,466.955 274.331,466.302 274.331,466.302 300.562,487.109 " fill="#1d1d9b" stroke="white" stroke-width="2" />
<polygon points="89.379,512 112.569,469.981 112.569,469.981 140.165,476.365 140.165,476.365 142.35,512 142.35,512 89.379,512 " fill="#1d1d9b" stroke="white" stroke-width="2" />
<polygon points="369.059,509.567 369.603,512 369.603,512 300.314,512 300.314,512 300.562,487.109 300.562,487.109 330.689,463.174 330.689,463.174 331.992,463.34 331.992,463.34 369.059,509.567 " fill="#1d1d9b" stroke="white" stroke-width="2" />
<polygon points="241.404,503.427 241.545,512 241.545,512 186.173,512 186.173,512 188.157,481.963 188.157,481.963 207.092,467.159 207.092,467.159 214.35,469.323 214.35,469.323 241.404,503.427 " fill="#1d1d9b" stroke="white" stroke-width="2" />
<circle cx="300.802" cy="20.9052" r="1" fill="red"/>
<circle cx="298.7" cy="19.5751" r="1" fill="yellow"/>
<circle cx="33.3096" cy="19.7737" r="1" fill="red"/>
<circle cx="34.0384" cy="19.6236" r="1" fill="yellow"/>
<circle cx="421.277" cy="24.5309" r="1" fill="red"/>
<circle cx="423.547" cy="25.1417" r="1" fill="yellow"/>
<circle cx="483.884" cy="26.8867" r="1" fill="red"/>
<circle cx="485.864" cy="27.3557" r="1" fill="yellow"/>
<circle cx="359.703" cy="29.8567" r="1" fill="red"/>
<circle cx="359.136" cy="31.0003" r="1" fill="yellow"/>
<circle cx="119.19" cy="30.8241" r="1" fill="red"/>
<circle cx="115.88" cy="32.1905" r="1" fill="yellow"/>
<circle cx="239.983" cy="31.6098" r="1" fill="red"/>
<circle cx="242.742" cy="34.3535" r="1" fill="yellow"/>
<circle cx="185.625" cy="35.8037" r="1" fill="red"/>
<circle cx="188.608" cy="35.6483" r="1" fill="yellow"/>
<circle cx="70.2525" cy="47.7649" r="1" fill="red"/>
<circle cx="65.9382" cy="51.8316" r="1" fill="yellow"/>
<circle cx="277.757" cy="62.6119" r="1" fill="red"/>
<circle cx="279.033" cy="61.0661" r="1" fill="yellow"/>
<circle cx="435.314" cy="69.991" r="1" fill="red"/>
<circle cx="437.736" cy="70.2224" r="1" fill="yellow"/>
<circle cx="15.3874" cy="71.6723" r="1" fill="red"/>
<circle cx="14.4203" cy="72.4008" r="1" fill="yellow"/>
<circle cx="52.5859" cy="83.8701" r="1" fill="red"/>
<circle cx="50.3643" cy="82.1214" r="1" fill="yellow"/>
<circle cx="318.257" cy="81.4351" r="1" fill="red"/>
<circle cx="314.21" cy="82.4496" r="1" fill="yellow"/>
<circle cx="490.32" cy="82.2788" r="1" fill="red"/>
<circle cx="492.062" cy="82.6929" r="1" fill="yellow"/>
<circle cx="375.754" cy="84.3573" r="1" fill="red"/>
<circle cx="373.728" cy="86.2557" r="1" fill="yellow"/>
<circle cx="159.306" cy="98.5176" r="1" fill="red"/>
<circle cx="157.561" cy="98.2691" r="1" fill="yellow"/>
<circle cx="239.055" cy="97.4857" r="1" fill="red"/>
<circle cx="244.653" cy="100.926" r="1" fill="yellow"/>
<circle cx="101.025" cy="98.6272" r="1" fill="red"/>
<circle cx="98.5877" cy="101.179" r="1" fill="yellow"/>
<circle cx="446.968" cy="114.821" r="1" fill="red"/>
<circle cx="449.323" cy="113.777" r="1" fill="yellow"/>
<circle cx="37.7485" cy="122.714" r="1" fill="red"/>
<circle cx="39.855" cy="119.5" r="1" fill="yellow"/>
<circle cx="285.869" cy="125.665" r="1" fill="red"/>
<circle cx="287.065" cy="127.369" r="1" fill="yellow"/>
<circle cx="341.225" cy="134.604" r="1" fill="red"/>
<circle cx="341.133" cy="135.011" r="1" fill="yellow"/>
<circle cx="394.57" cy="136.303" r="1" fill="red"/>
<circle cx="394.492" cy="135.851" r="1" fill="yellow"/>
<circle cx="208.598" cy="140.021" r="1" fill="red"/>
<circle cx="209.559" cy="136.944" r="1" fill="yellow"/>
<circle cx="489.357" cy="142.867" r="1" fill="red"/>
<circle cx="490.338" cy="140.424" r="1" fill="yellow"/>
<circle cx="101.913" cy="149.076" r="1" fill="red"/>
<circle cx="99.895" cy="149.879" r="1" fill="yellow"/>
<circle cx="26.1489" cy="170.443" r="1" fill="red"/>
<circle cx="24.3064" cy="166.322" r="1" fill="yellow"/>
<circle cx="280.873" cy="167.228" r="1" fill="red"/>
<circle cx="285.047" cy="166.493" r="1" fill="yellow"/>
<circle cx="435.772" cy="169.749" r="1" fill="red"/>
<circle cx="434.448" cy="166.672" r="1" fill="yellow"/>
<circle cx="162.664" cy="182.933" r="1" fill="red"/>
<circle cx="162.495" cy="183.506" r="1" fill="yellow"/>
<circle cx="317.247" cy="189.565" r="1" fill="red"/>
<circle cx="321.123" cy="185.76" r="1" fill="yellow"/>
<circle cx="360.812" cy="187.24" r="1" fill="red"/>
<circle cx="358.938" cy="191.553" r="1" fill="yellow"/>
<circle cx="97.6747" cy="196.376" r="1" fill="red"/>
<circle cx="96.0159" cy="194.771" r="1" fill="yellow"/>
<circle cx="244.324" cy="197.931" r="1" fill="red"/>
<circle cx="247.923" cy="198.12" r="1" fill="yellow"/>
<circle cx="484.928" cy="206.959" r="1" fill="red"/>
<circle cx="484.489" cy="202.121" r="1" fill="yellow"/>
<circle cx="394.596" cy="211.265" r="1" fill="red"/>
<circle cx="392.582" cy="207.988" r="1" fill="yellow"/>
<circle cx="50.7128" cy="222.17" r="1" fill="red"/>
<circle cx="52.8054" cy="220.574" r="1" fill="yellow"/>
<circle cx="342.257" cy="238.567" r="1" fill="red"/>
<circle cx="340.161" cy="236.052" r="1" fill="yellow"/>
<circle cx="199.814" cy="236.107" r="1" fill="red"/>
<circle cx="200.699" cy="237.302" r="1" fill="yellow"/>
<circle cx="432.845" cy="242.226" r="1" fill="red"/>
<circle cx="432.256" cy="239.701" r="1" fill="yellow"/>
<circle cx="120.433" cy="250.002" r="1" fill="red"/>
<circle cx="120.77" cy="251.402" r="1" fill="yellow"/>
<circle cx="277.071" cy="251.531" r="1" fill="red"/>
<circle cx="277.786" cy="252.409" r="1" fill="yellow"/>
<circle cx="21.8755" cy="264.931" r="1" fill="red"/>
<circle cx="23.0053" cy="263.622" r="1" fill="yellow"/>
<circle cx="332.442" cy="286.157" r="1" fill="red"/>
<circle cx="332.224" cy="284.886" r="1" fill="yellow"/>
<circle cx="478.092" cy="284.431" r="1" fill="red"/>
<circle cx="477.203" cy="285.037" r="1" fill="yellow"/>
<circle cx="190.749" cy="286.743" r="1" fill="red"/>
<circle cx="191.533" cy="289.491" r="1" fill="yellow"/>
<circle cx="141.243" cy="298.685" r="1" fill="red"/>
<circle cx="141.626" cy="299.973" r="1" fill="yellow"/>
<circle cx="398.662" cy="297.791" r="1" fill="red"/>
<circle cx="396.706" cy="300.321" r="1" fill="yellow"/>
<circle cx="240.406" cy="299.532" r="1" fill="red"/>
<circle cx="241.467" cy="301.376" r="1" fill="yellow"/>
<circle cx="59.0054" cy="299.156" r="1" fill="red"/>
<circle cx="58.777" cy="301.951" r="1" fill="yellow"/>
<circle cx="283.868" cy="323.45" r="1" fill="red"/>
<circle cx="280.899" cy="327.543" r="1" fill="yellow"/>
<circle cx="104.203" cy="328.232" r="1" fill="red"/>
<circle cx="105.671" cy="331.056" r="1" fill="yellow"/>
<circle cx="186.009" cy="336.776" r="1" fill="red"/>
<circle cx="184.866" cy="339.109" r="1" fill="yellow"/>
<circle cx="340.825" cy="339.328" r="1" fill="red"/>
<circle cx="337.556" cy="341.381" r="1" fill="yellow"/>
<circle cx="476.846" cy="347.93" r="1" fill="red"/>
<circle cx="477.104" cy="351.841" r="1" fill="yellow"/>
<circle cx="18.0496" cy="352.137" r="1" fill="red"/>
<circle cx="17.8036" cy="358.588" r="1" fill="yellow"/>
<circle cx="61.8246" cy="357.761" r="1" fill="red"/>
<circle cx="62.0567" cy="358.647" r="1" fill="yellow"/>
<circle cx="411.568" cy="356.829" r="1" fill="red"/>
<circle cx="411.21" cy="359.238" r="1" fill="yellow"/>
<circle cx="141.607" cy="361.244" r="1" fill="red"/>
<circle cx="140.86" cy="363.554" r="1" fill="yellow"/>
<circle cx="237.176" cy="361.502" r="1" fill="red"/>
<circle cx="237.687" cy="367.496" r="1" fill="yellow"/>
<circle cx="274.993" cy="367.395" r="1" fill="red"/>
<circle cx="273.62" cy="369.566" r="1" fill="yellow"/>
<circle cx="202.632" cy="375.85" r="1" fill="red"/>
<circle cx="203.498" cy="376.028" r="1" fill="yellow"/>
<circle cx="99.3171" cy="382.676" r="1" fill="red"/>
<circle cx="99.6664" cy="384.485" r="1" fill="yellow"/>
<circle cx="308.486" cy="387.946" r="1" fill="red"/>
<circle cx="305.38" cy="388.844" r="1" fill="yellow"/>
<circle cx="352.293" cy="386.117" r="1" fill="red"/>
<circle cx="348.099" cy="388.965" r="1" fill="yellow"/>
<circle cx="169.572" cy="396.227" r="1" fill="red"/>
<circle cx="170.142" cy="397.748" r="1" fill="yellow"/>
<circle cx="486.784" cy="401.333" r="1" fill="red"/>
<circle cx="487.013" cy="404.654" r="1" fill="yellow"/>
<circle cx="277.128" cy="409.045" r="1" fill="red"/>
<circle cx="275.785" cy="408.47" r="1" fill="yellow"/>
<circle cx="34.6284" cy="405.547" r="1" fill="red"/>
<circle cx="37.4874" cy="408.696" r="1" fill="yellow"/>
<circle cx="234.764" cy="410.003" r="1" fill="red"/>
<circle cx="234.157" cy="412.677" r="1" fill="yellow"/>
<circle cx="137.245" cy="413.827" r="1" fill="red"/>
<circle cx="137.895" cy="413.698" r="1" fill="yellow"/>
<circle cx="389.92" cy="416.02" r="1" fill="red"/>
<circle cx="389.942" cy="414.823" r="1" fill="yellow"/>
<circle cx="434.766" cy="411.359" r="1" fill="red"/>
<circle cx="434.998" cy="414.963" r="1" fill="yellow"/>
<circle cx="87.8301" cy="420.706" r="1" fill="red"/>
<circle cx="87.5479" cy="420.152" r="1" fill="yellow"/>
<circle cx="195.83" cy="421.341" r="1" fill="red"/>
<circle cx="196.73" cy="421.838" r="1" fill="yellow"/>
<circle cx="337.449" cy="432.03" r="1" fill="red"/>
<circle cx="337.921" cy="432.894" r="1" fill="yellow"/>
<circle cx="266.396" cy="441.918" r="1" fill="red"/>
<circle cx="266.525" cy="439.805" r="1" fill="yellow"/>
<circle cx="223.855" cy="447.127" r="1" fill="red"/>
<circle cx="225.954" cy="446.605" r="1" fill="yellow"/>
<circle cx="18.0365" cy="445.669" r="1" fill="red"/>
<circle cx="17.448" cy="446.84" r="1" fill="yellow"/>
<circle cx="454.557" cy="447.546" r="1" fill="red"/>
<circle cx="457.52" cy="447.565" r="1" fill="yellow"/>
<circle cx="60.2672" cy="449.017" r="1" fill="red"/>
<circle cx="61.7807" cy="448.897" r="1" fill="yellow"/>
<circle cx="494.782" cy="448.951" r="1" fill="red"/>
<circle cx="495.455" cy="450.294" r="1" fill="yellow"/>
<circle cx="129.329" cy="451.834" r="1" fill="red"/>
<circle cx="129.09" cy="451.105" r="1" fill="yellow"/>
<circle cx="179.589" cy="455.544" r="1" fill="red"/>
<circle cx="181.467" cy="456.129" r="1" fill="yellow"/>
<circle cx="301.857" cy="456.812" r="1" fill="red"/>
<circle cx="300.236" cy="456.712" r="1" fill="yellow"/>
<circle cx="363.092" cy="468.378" r="1" fill="red"/>
<circle cx="362.623" cy="468.22" r="1" fill="yellow"/>
<circle cx="241.327" cy="474.483" r="1" fill="red"/>
<circle cx="239.671" cy="472.431" r="1" fill="yellow"/>
<circle cx="89.706" cy="476.863" r="1" fill="red"/>
<circle cx="88.5896" cy="477.345" r="1" fill="yellow"/>
<circle cx="397.107" cy="480.111" r="1" fill="red"/>
<circle cx="397.797" cy="479.152" r="1" fill="yellow"/>
<circle cx="431.721" cy="487.789" r="1" fill="red"/>
<circle cx="433.064" cy="487.367" r="1" fill="yellow"/>
<circle cx="467.194" cy="490.382" r="1" fill="red"/>
<circle cx="468.481" cy="490.12" r="1" fill="yellow"/>
<circle cx="19.5632" cy="489.975" r="1" fill="red"/>
<circle cx="20.2096" cy="490.425" r="1" fill="yellow"/>
<circle cx="163.103" cy="491.567" r="1" fill="red"/>
<circle cx="163.23" cy="491.49" r="1" fill="yellow"/>
<circle cx="497.794" cy="491.863" r="1" fill="red"/>
<circle cx="498.39" cy="492.09" r="1" fill="yellow"/>
<circle cx="57.5955" cy="493.441" r="1" fill="red"/>
<circle cx="57.0012" cy="493.245" r="1" fill="yellow"/>
<circle cx="273.12" cy="493.89" r="1" fill="red"/>
<circle cx="270.889" cy="493.71" r="1" fill="yellow"/>
<circle cx="119.902" cy="494.39" r="1" fill="red"/>
<circle cx="119.121" cy="494.195" r="1" fill="yellow"/>
<circle cx="330.006" cy="494.042" r="1" fill="red"/>
<circle cx="330.098" cy="494.299" r="1" fill="yellow"/>
<circle cx="210.886" cy="494.352" r="1" fill="red"/>
<circle cx="211.615" cy="494.687" r="1" fill="yellow"/>
</svg>