<svg width="512" height="512" viewBox="0 0 512 512" xmlns="http://www.w3.org/2000/svg" ><rect width="100%" height="100%" fill="white"/>
<polygon points="453.378,35.0318 419.434,50.7794 419.434,50.7794 393.981,32.7735 393.981,32.7735 392.454,0 392.454,0 456.692,0 456.692,0 453.378,35.0318 " fill="#1d1d9b" stroke="white" stroke-width="2" />
<polygon points="161.832,36.6646 136.757,52.7233 136.757,52.7233 106.383,38.773 106.383,38.773 101.972,0 101.972,0 163.395,0 163.395,0 161.832,36.6646 " fill="#1d1d9b" stroke="white" stroke-width="2" />
<polygon points="334.516,40.8452 306.725,54.5346 306.725,54.5346 276.641,32.2116 276.641,32.2116 276.578,0 276.578,0 335.224,0 335.224,0 334.516,40.8452 " fill="#1d1d9b" stroke="white" stroke-width="2" />
<polygon points="276.641,32.2116 246.546,54.5113 246.546,54.5113 219.595,42.3493 219.595,42.3493 218.26,0 218.26,0 276.578,0 276.578,0 276.641,32.2116 " fill="#1d1d9b" stroke="white" stroke-width="2" />
<polygon points="53.6298,0 48.8234,47.6243 48.8234,47.6243 0,48.8078 0,48.8078 0,0 0,0 53.6298,0 " fill="#1d1d9b" stroke="white" stroke-width="2" />
<polygon points="393.981,32.7735 360.612,57.2644 360.612,57.2644 334.516,40.8452 334.516,40.8452 335.224,0 335.224,0 392.454,0 392.454,0 393.981,32.7735 " fill="#1d1d9b" stroke="white" stroke-width="2" />
<polygon points="219.595,42.3493 194.511,58.0822 194.511,58.0822 161.832,36.6646 161.832,36.6646 163.395,0 163.395,0 218.26,0 218.26,0 219.595,42.3493 " fill="#1d1d9b" stroke="white" stroke-width="2" />
<polygon points="512,55.1224 475.679,57.5059 475.679,57.5059 453.378,35.0318 453.378,35.0318 456.692,0 456.692,0 512,0 512,0 512,55.1224 " fill="#1d1d9b" stroke="white" stroke-width="2" />
<polygon points="106.383,38.773 78.2891,62.8138 78.2891,62.8138 61.1943,61.7059 61.1943,61.7059 48.8234,47.6243 48.8234,47.6243 53.6298,0 53.6298,0 101.972,0 101.972,0 106.383,38.773 " fill="#1d1d9b" stroke="white" stroke-width="2" />
<polygon points="306.725,54.5346 301.001,85.5048 301.001,85.5048 253.877,88.0663 253.877,88.0663 246.546,54.5113 246.546,54.5113 276.641,32.2116 276.641,32.2116 306.725,54.5346 " fill="#1d1d9b" stroke="white" stroke-width="2" />
<polygon points="419.434,50.7794 418.467,86.538 418.467,86.538 406.571,95.4273 406.571,95.4273 363.524,77.5661 363.524,77.5661 360.612,57.2644 360.612,57.2644 393.981,32.7735 393.981,32.7735 419.434,50.7794 " fill="#1d1d9b" stroke="white" stroke-width="2" />
<polygon points="475.679,57.5059 457.542,96.6321 457.542,96.6321 418.467,86.538 418.467,86.538 419.434,50.7794 419.434,50.7794 453.378,35.0318 453.378,35.0318 475.679,57.5059 " fill="#1d1d9b" stroke="white" stroke-width="2" />
<polygon points="194.511,58.0822 191.902,81.2755 191.902,81.2755 152.017,99.5134 152.017,99.5134 137.748,90.3178 137.748,90.3178 136.757,52.7233 136.757,52.7233 161.832,36.6646 161.832,36.6646 194.511,58.0822 " fill="#1d1d9b" stroke="white" stroke-width="2" />
<polygon points="136.757,52.7233 137.748,90.3178 137.748,90.3178 103.903,101.146 103.903,101.146 78.2891,62.8138 78.2891,62.8138 106.383,38.773 106.383,38.773 136.757,52.7233 " fill="#1d1d9b" stroke="white" stroke-width="2" />
<polygon points="61.1943,61.7059 41.3729,99.825 41.3729,99.825 0,98.6774 0,98.6774 0,48.8078 0,48.8078 48.8234,47.6243 48.8234,47.6243 61.1943,61.7059 " fill="#1d1d9b" stroke="white" stroke-width="2" />
<polygon points="363.524,77.5661 343.888,103.191 343.888,103.191 311.802,101.219 311.802,101.219 301.001,85.5048 301.001,85.5048 306.725,54.5346 306.725,54.5346 334.516,40.8452 334.516,40.8452 360.612,57.2644 360.612,57.2644 363.524,77.5661 " fill="#1d1d9b" stroke="white" stroke-width="2" />
<polygon points="253.877,88.0663 245.733,101.237 245.733,101.237 213.984,105.917 213.984,105.917 191.902,81.2755 191.902,81.2755 194.511,58.0822 194.511,58.0822 219.595,42.3493 219.595,42.3493 246.546,54.5113 246.546,54.5113 253.877,88.0663 " fill="#1d1d9b" stroke="white" stroke-width="2" />
<polygon points="512,115.429 466.106,112.636 466.106,112.636 457.542,96.6321 457.542,96.6321 475.679,57.5059 475.679,57.5059 512,55.1224 512,55.1224 512,115.429 " fill="#1d1d9b" stroke="white" stroke-width="2" />
<polygon points="103.903,101.146 94.6719,121.121 94.6719,121.121 57.5117,125.089 57.5117,125.089 41.3729,99.825 41.3729,99.825 61.1943,61.7059 61.1943,61.7059 78.2891,62.8138 78.2891,62.8138 103.903,101.146 " fill="#1d1d9b" stroke="white" stroke-width="2" />
<polygon points="406.571,95.4273 401.107,127.325 401.107,127.325 359.249,134.086 359.249,134.086 343.888,103.191 343.888,103.191 363.524,77.5661 363.524,77.5661 406.571,95.4273 " fill="#1d1d9b" stroke="white" stroke-width="2" />
<polygon points="311.802,101.219 296.855,136.231 296.855,136.231 262.98,137.386 262.98,137.386 245.733,101.237 245.733,101.237 253.877,88.0663 253.877,88.0663 301.001,85.5048 301.001,85.5048 311.802,101.219 " fill="#1d1d9b" stroke="white" stroke-width="2" />
<polygon points="213.984,105.917 200.68,136.891 200.68,136.891 158.796,134.246 158.796,134.246 152.017,99.5134 152.017,99.5134 191.902,81.2755 191.902,81.2755 213.984,105.917 " fill="#1d1d9b" stroke="white" stroke-width="2" />
<polygon points="466.106,112.636 452.449,142.866 452.449,142.866 415.061,145.599 415.061,145.599 401.107,127.325 401.107,127.325 406.571,95.4273 406.571,95.4273 418.467,86.538 418.467,86.538 457.542,96.6321 457.542,96.6321 466.106,112.636 " fill="#1d1d9b" stroke="white" stroke-width="2" />
<polygon points="158.796,134.246 147.352,149.875 147.352,149.875 110.712,149.961 110.712,149.961 94.6719,121.121 94.6719,121.121 103.903,101.146 103.903,101.146 137.748,90.3178 137.748,90.3178 152.017,99.5134 152.017,99.5134 158.796,134.246 " fill="#1d1d9b" stroke="white" stroke-width="2" />
<polygon points="57.5117,125.089 45.2999,151.839 45.2999,151.839 0,152.855 0,152.855 0,98.6774 0,98.6774 41.3729,99.825 41.3729,99.825 57.5117,125.089 " fill="#1d1d9b" stroke="white" stroke-width="2" />
<polygon points="359.249,134.086 349.891,155.971 349.891,155.971 312.7,159.049 312.7,159.049 296.855,136.231 296.855,136.231 311.802,101.219 311.802,101.219 343.888,103.191 343.888,103.191 359.249,134.086 " fill="#1d1d9b" stroke="white" stroke-width="2" />
<polygon points="262.98,137.386 248.811,159.92 248.811,159.92 212.631,159.835 212.631,159.835 200.68,136.891 200.68,136.891 213.984,105.917 213.984,105.917 245.733,101.237 245.733,101.237 262.98,137.386 " fill="#1d1d9b" stroke="white" stroke-width="2" />
<polygon points="512,168.088 468.574,169.259 468.574,169.259 452.449,142.866 452.449,142.866 466.106,112.636 466.106,112.636 512,115.429 512,115.429 512,168.088 " fill="#1d1d9b" stroke="white" stroke-width="2" />
<polygon points="110.712,149.961 95.925,177.209 95.925,177.209 59.0634,177.018 59.0634,177.018 45.2999,151.839 45.2999,151.839 57.5117,125.089 57.5117,125.089 94.6719,121.121 94.6719,121.121 110.712,149.961 " fill="#1d1d9b" stroke="white" stroke-width="2" />
<polygon points="415.061,145.599 404.507,178.304 404.507,178.304 364.168,180.045 364.168,180.045 349.891,155.971 349.891,155.971 359.249,134.086 359.249,134.086 401.107,127.325 401.107,127.325 415.061,145.599 " fill="#1d1d9b" stroke="white" stroke-width="2" />
<polygon points="212.631,159.835 199.555,184.564 199.555,184.564 159.859,185.498 159.859,185.498 147.352,149.875 147.352,149.875 158.796,134.246 158.796,134.246 200.68,136.891 200.68,136.891 212.631,159.835 " fill="#1d1d9b" stroke="white" stroke-width="2" />
<polygon points="312.7,159.049 300.253,190.243 300.253,190.243 263.887,191.757 263.887,191.757 248.811,159.92 248.811,159.92 262.98,137.386 262.98,137.386 296.855,136.231 296.855,136.231 312.7,159.049 " fill="#1d1d9b" stroke="white" stroke-width="2" />
<polygon points="468.574,169.259 454.624,197.727 454.624,197.727 417.891,199.126 417.891,199.126 404.507,178.304 404.507,178.304 415.061,145.599 415.061,145.599 452.449,142.866 452.449,142.866 468.574,169.259 " fill="#1d1d9b" stroke="white" stroke-width="2" />
<polygon points="159.859,185.498 148.095,204.324 148.095,204.324 110.05,204.45 110.05,204.45 95.925,177.209 95.925,177.209 110.712,149.961 110.712,149.961 147.352,149.875 147.352,149.875 159.859,185.498 " fill="#1d1d9b" stroke="white" stroke-width="2" />
<polygon points="59.0634,177.018 45.257,204.6 45.257,204.6 0,204.23 0,204.23 0,152.855 0,152.855 45.2999,151.839 45.2999,151.839 59.0634,177.018 " fill="#1d1d9b" stroke="white" stroke-width="2" />
<polygon points="364.168,180.045 352.844,210.276 352.844,210.276 314.869,211.458 314.869,211.458 300.253,190.243 300.253,190.243 312.7,159.049 312.7,159.049 349.891,155.971 349.891,155.971 364.168,180.045 " fill="#1d1d9b" stroke="white" stroke-width="2" />
<polygon points="263.887,191.757 251.101,212.998 251.101,212.998 213.405,214.819 213.405,214.819 199.555,184.564 199.555,184.564 212.631,159.835 212.631,159.835 248.811,159.92 248.811,159.92 263.887,191.757 " fill="#1d1d9b" stroke="white" stroke-width="2" />
<polygon points="512,223.851 470.572,224.633 470.572,224.633 454.624,197.727 454.624,197.727 468.574,169.259 468.574,169.259 512,168.088 512,168.088 512,223.851 " fill="#1d1d9b" stroke="white" stroke-width="2" />
<polygon points="110.05,204.45 96.0255,230.823 96.0255,230.823 58.3207,230.045 58.3207,230.045 45.257,204.6 45.257,204.6 59.0634,177.018 59.0634,177.018 95.925,177.209 95.925,177.209 110.05,204.45 " fill="#1d1d9b" stroke="white" stroke-width="2" />
<polygon points="417.891,199.126 406.487,227.277 406.487,227.277 365.9,230.168 365.9,230.168 352.844,210.276 352.844,210.276 364.168,180.045 364.168,180.045 404.507,178.304 404.507,178.304 417.891,199.126 " fill="#1d1d9b" stroke="white" stroke-width="2" />
<polygon points="213.405,214.819 201.475,235.788 201.475,235.788 160.396,235.169 160.396,235.169 148.095,204.324 148.095,204.324 159.859,185.498 159.859,185.498 199.555,184.564 199.555,184.564 213.405,214.819 " fill="#1d1d9b" stroke="white" stroke-width="2" />
<polygon points="314.869,211.458 301.818,246.247 301.818,246.247 267.142,248.367 267.142,248.367 251.101,212.998 251.101,212.998 263.887,191.757 263.887,191.757 300.253,190.243 300.253,190.243 314.869,211.458 " fill="#1d1d9b" stroke="white" stroke-width="2" />
<polygon points="470.572,224.633 456.143,251.488 456.143,251.488 421.561,253.854 421.561,253.854 406.487,227.277 406.487,227.277 417.891,199.126 417.891,199.126 454.624,197.727 454.624,197.727 470.572,224.633 " fill="#1d1d9b" stroke="white" stroke-width="2" />
<polygon points="58.3207,230.045 44.3171,256.919 44.3171,256.919 0,256.395 0,256.395 0,204.23 0,204.23 45.257,204.6 45.257,204.6 58.3207,230.045 " fill="#1d1d9b" stroke="white" stroke-width="2" />
<polygon points="160.396,235.169 147.1,258.34 147.1,258.34 108.613,256.305 108.613,256.305 96.0255,230.823 96.0255,230.823 110.05,204.45 110.05,204.45 148.095,204.324 148.095,204.324 160.396,235.169 " fill="#1d1d9b" stroke="white" stroke-width="2" />
<polygon points="365.9,230.168 357.234,259.941 357.234,259.941 318.455,266.628 318.455,266.628 301.818,246.247 301.818,246.247 314.869,211.458 314.869,211.458 352.844,210.276 352.844,210.276 365.9,230.168 " fill="#1d1d9b" stroke="white" stroke-width="2" />
<polygon points="267.142,248.367 253.993,267.855 253.993,267.855 212.084,264.5 212.084,264.5 201.475,235.788 201.475,235.788 213.405,214.819 213.405,214.819 251.101,212.998 251.101,212.998 267.142,248.367 " fill="#1d1d9b" stroke="white" stroke-width="2" />
<polygon points="512,281.277 473.466,280.535 473.466,280.535 456.143,251.488 456.143,251.488 470.572,224.633 470.572,224.633 512,223.851 512,223.851 512,281.277 " fill="#1d1d9b" stroke="white" stroke-width="2" />
<polygon points="421.561,253.854 411.149,274.674 411.149,274.674 373.295,280.585 373.295,280.585 357.234,259.941 357.234,259.941 365.9,230.168 365.9,230.168 406.487,227.277 406.487,227.277 421.561,253.854 " fill="#1d1d9b" stroke="white" stroke-width="2" />
<polygon points="108.613,256.305 93.5292,284.282 93.5292,284.282 57.4074,282.657 57.4074,282.657 44.3171,256.919 44.3171,256.919 58.3207,230.045 58.3207,230.045 96.0255,230.823 96.0255,230.823 108.613,256.305 " fill="#1d1d9b" stroke="white" stroke-width="2" />
<polygon points="212.084,264.5 197.486,288.07 197.486,288.07 157.557,283.117 157.557,283.117 147.1,258.34 147.1,258.34 160.396,235.169 160.396,235.169 201.475,235.788 201.475,235.788 212.084,264.5 " fill="#1d1d9b" stroke="white" stroke-width="2" />
<polygon points="318.455,266.628 310.875,300.563 310.875,300.563 295.745,309.395 295.745,309.395 262.315,298.768 262.315,298.768 253.993,267.855 253.993,267.855 267.142,248.367 267.142,248.367 301.818,246.247 301.818,246.247 318.455,266.628 " fill="#1d1d9b" stroke="white" stroke-width="2" />
<polygon points="473.466,280.535 453.878,310.465 453.878,310.465 427.277,307.918 427.277,307.918 411.149,274.674 411.149,274.674 421.561,253.854 421.561,253.854 456.143,251.488 456.143,251.488 473.466,280.535 " fill="#1d1d9b" stroke="white" stroke-width="2" />
<polygon points="57.4074,282.657 42.5753,309.266 42.5753,309.266 0,309.362 0,309.362 0,256.395 0,256.395 44.3171,256.919 44.3171,256.919 57.4074,282.657 " fill="#1d1d9b" stroke="white" stroke-width="2" />
<polygon points="157.557,283.117 141.477,311.71 141.477,311.71 105.833,308.188 105.833,308.188 93.5292,284.282 93.5292,284.282 108.613,256.305 108.613,256.305 147.1,258.34 147.1,258.34 157.557,283.117 " fill="#1d1d9b" stroke="white" stroke-width="2" />
<polygon points="373.295,280.585 365.706,311.592 365.706,311.592 350.035,320.609 350.035,320.609 310.875,300.563 310.875,300.563 318.455,266.628 318.455,266.628 357.234,259.941 357.234,259.941 373.295,280.585 " fill="#1d1d9b" stroke="white" stroke-width="2" />
<polygon points="262.315,298.768 239.344,321.519 239.344,321.519 205.815,312.828 205.815,312.828 197.486,288.07 197.486,288.07 212.084,264.5 212.084,264.5 253.993,267.855 253.993,267.855 262.315,298.768 " fill="#1d1d9b" stroke="white" stroke-width="2" />
<polygon points="427.277,307.918 404.525,332.806 404.525,332.806 365.706,311.592 365.706,311.592 373.295,280.585 373.295,280.585 411.149,274.674 411.149,274.674 427.277,307.918 " fill="#1d1d9b" stroke="white" stroke-width="2" />
<polygon points="512,335.799 469.466,337.862 469.466,337.862 453.878,310.465 453.878,310.465 473.466,280.535 473.466,280.535 512,281.277 512,281.277 512,335.799 " fill="#1d1d9b" stroke="white" stroke-width="2" />
<polygon points="105.833,308.188 89.2466,337.518 89.2466,337.518 57.8229,338.173 57.8229,338.173 42.5753,309.266 42.5753,309.266 57.4074,282.657 57.4074,282.657 93.5292,284.282 93.5292,284.282 105.833,308.188 " fill="#1d1d9b" stroke="white" stroke-width="2" />
<polygon points="205.815,312.828 185.834,338.94 185.834,338.94 151.636,332.538 151.636,332.538 141.477,311.71 141.477,311.71 157.557,283.117 157.557,283.117 197.486,288.07 197.486,288.07 205.815,312.828 " fill="#1d1d9b" stroke="white" stroke-width="2" />
<polygon points="293.84,351.694 272.074,363.755 272.074,363.755 246.671,354.04 246.671,354.04 239.344,321.519 239.344,321.519 262.315,298.768 262.315,298.768 295.745,309.395 295.745,309.395 293.84,351.694 " fill="#1d1d9b" stroke="white" stroke-width="2" />
<polygon points="350.035,320.609 344.216,355.265 344.216,355.265 324.951,365.466 324.951,365.466 293.84,351.694 293.84,351.694 295.745,309.395 295.745,309.395 310.875,300.563 310.875,300.563 350.035,320.609 " fill="#1d1d9b" stroke="white" stroke-width="2" />
<polygon points="57.8229,338.173 43.721,361.708 43.721,361.708 0,361.485 0,361.485 0,309.362 0,309.362 42.5753,309.266 42.5753,309.266 57.8229,338.173 " fill="#1d1d9b" stroke="white" stroke-width="2" />
<polygon points="151.636,332.538 133.704,364.115 133.704,364.115 107.788,366.282 107.788,366.282 89.2466,337.518 89.2466,337.518 105.833,308.188 105.833,308.188 141.477,311.71 141.477,311.71 151.636,332.538 " fill="#1d1d9b" stroke="white" stroke-width="2" />
<polygon points="469.466,337.862 458.369,360.403 458.369,360.403 427.404,368.572 427.404,368.572 405.992,353.72 405.992,353.72 404.525,332.806 404.525,332.806 427.277,307.918 427.277,307.918 453.878,310.465 453.878,310.465 469.466,337.862 " fill="#1d1d9b" stroke="white" stroke-width="2" />
<polygon points="404.525,332.806 405.992,353.72 405.992,353.72 375.353,372.905 375.353,372.905 344.216,355.265 344.216,355.265 350.035,320.609 350.035,320.609 365.706,311.592 365.706,311.592 404.525,332.806 " fill="#1d1d9b" stroke="white" stroke-width="2" />
<polygon points="246.671,354.04 219.826,373.898 219.826,373.898 194.519,364.11 194.519,364.11 185.834,338.94 185.834,338.94 205.815,312.828 205.815,312.828 239.344,321.519 239.344,321.519 246.671,354.04 " fill="#1d1d9b" stroke="white" stroke-width="2" />
<polygon points="194.519,364.11 160.996,396.773 160.996,396.773 133.704,364.115 133.704,364.115 151.636,332.538 151.636,332.538 185.834,338.94 185.834,338.94 194.519,364.11 " fill="#1d1d9b" stroke="white" stroke-width="2" />
<polygon points="512,395.93 481.335,395.201 481.335,395.201 458.369,360.403 458.369,360.403 469.466,337.862 469.466,337.862 512,335.799 512,335.799 512,395.93 " fill="#1d1d9b" stroke="white" stroke-width="2" />
<polygon points="107.788,366.282 92.5489,393.474 92.5489,393.474 56.8907,391.79 56.8907,391.79 43.721,361.708 43.721,361.708 57.8229,338.173 57.8229,338.173 89.2466,337.518 89.2466,337.518 107.788,366.282 " fill="#1d1d9b" stroke="white" stroke-width="2" />
<polygon points="324.951,365.466 321.919,404.25 321.919,404.25 300.639,415.529 300.639,415.529 274.216,403.705 274.216,403.705 272.074,363.755 272.074,363.755 293.84,351.694 293.84,351.694 324.951,365.466 " fill="#1d1d9b" stroke="white" stroke-width="2" />
<polygon points="274.216,403.705 248.097,417.948 248.097,417.948 225.204,407.071 225.204,407.071 219.826,373.898 219.826,373.898 246.671,354.04 246.671,354.04 272.074,363.755 272.074,363.755 274.216,403.705 " fill="#1d1d9b" stroke="white" stroke-width="2" />
<polygon points="427.404,368.572 424.575,409.274 424.575,409.274 407.316,419.709 407.316,419.709 375.356,404.456 375.356,404.456 375.353,372.905 375.353,372.905 405.992,353.72 405.992,353.72 427.404,368.572 " fill="#1d1d9b" stroke="white" stroke-width="2" />
<polygon points="375.353,372.905 375.356,404.456 375.356,404.456 352.429,418.68 352.429,418.68 321.919,404.25 321.919,404.25 324.951,365.466 324.951,365.466 344.216,355.265 344.216,355.265 375.353,372.905 " fill="#1d1d9b" stroke="white" stroke-width="2" />
<polygon points="56.8907,391.79 42.3867,413.251 42.3867,413.251 0,413.039 0,413.039 0,361.485 0,361.485 43.721,361.708 43.721,361.708 56.8907,391.79 " fill="#1d1d9b" stroke="white" stroke-width="2" />
<polygon points="481.335,395.201 457.793,420.447 457.793,420.447 424.575,409.274 424.575,409.274 427.404,368.572 427.404,368.572 458.369,360.403 458.369,360.403 481.335,395.201 " fill="#1d1d9b" stroke="white" stroke-width="2" />
<polygon points="160.996,396.773 160.972,399.005 160.972,399.005 138.712,422.208 138.712,422.208 103.615,415.936 103.615,415.936 92.5489,393.474 92.5489,393.474 107.788,366.282 107.788,366.282 133.704,364.115 133.704,364.115 160.996,396.773 " fill="#1d1d9b" stroke="white" stroke-width="2" />
<polygon points="225.204,407.071 196.445,424.679 196.445,424.679 160.972,399.005 160.972,399.005 160.996,396.773 160.996,396.773 194.519,364.11 194.519,364.11 219.826,373.898 219.826,373.898 225.204,407.071 " fill="#1d1d9b" stroke="white" stroke-width="2" />
<polygon points="103.615,415.936 83.763,450.925 83.763,450.925 56.4847,448.312 56.4847,448.312 42.3867,413.251 42.3867,413.251 56.8907,391.79 56.8907,391.79 92.5489,393.474 92.5489,393.474 103.615,415.936 " fill="#1d1d9b" stroke="white" stroke-width="2" />
<polygon points="512,453.6 466.163,455.01 466.163,455.01 457.793,420.447 457.793,420.447 481.335,395.201 481.335,395.201 512,395.93 512,395.93 512,453.6 " fill="#1d1d9b" stroke="white" stroke-width="2" />
<polygon points="196.445,424.679 194.401,454.061 194.401,454.061 179.612,464.074 179.612,464.074 145.383,456.505 145.383,456.505 138.712,422.208 138.712,422.208 160.972,399.005 160.972,399.005 196.445,424.679 " fill="#1d1d9b" stroke="white" stroke-width="2" />
<polygon points="300.19,454.361 276.111,466.461 276.111,466.461 250.366,454.912 250.366,454.912 248.097,417.948 248.097,417.948 274.216,403.705 274.216,403.705 300.639,415.529 300.639,415.529 300.19,454.361 " fill="#1d1d9b" stroke="white" stroke-width="2" />
<polygon points="352.429,418.68 352.22,453.999 352.22,453.999 325.056,466.776 325.056,466.776 300.19,454.361 300.19,454.361 300.639,415.529 300.639,415.529 321.919,404.25 321.919,404.25 352.429,418.68 " fill="#1d1d9b" stroke="white" stroke-width="2" />
<polygon points="407.316,419.709 405.107,454.711 405.107,454.711 373.762,466.613 373.762,466.613 352.22,453.999 352.22,453.999 352.429,418.68 352.429,418.68 375.356,404.456 375.356,404.456 407.316,419.709 " fill="#1d1d9b" stroke="white" stroke-width="2" />
<polygon points="250.366,454.912 227.519,468.366 227.519,468.366 194.401,454.061 194.401,454.061 196.445,424.679 196.445,424.679 225.204,407.071 225.204,407.071 248.097,417.948 248.097,417.948 250.366,454.912 " fill="#1d1d9b" stroke="white" stroke-width="2" />
<polygon points="56.4847,448.312 40.8196,464.479 40.8196,464.479 0,462.748 0,462.748 0,413.039 0,413.039 42.3867,413.251 42.3867,413.251 56.4847,448.312 " fill="#1d1d9b" stroke="white" stroke-width="2" />
<polygon points="466.163,455.01 464.134,457.664 464.134,457.664 422.441,467.923 422.441,467.923 405.107,454.711 405.107,454.711 407.316,419.709 407.316,419.709 424.575,409.274 424.575,409.274 457.793,420.447 457.793,420.447 466.163,455.01 " fill="#1d1d9b" stroke="white" stroke-width="2" />
<polygon points="145.383,456.505 131.054,470.272 131.054,470.272 93.8585,465.08 93.8585,465.08 83.763,450.925 83.763,450.925 103.615,415.936 103.615,415.936 138.712,422.208 138.712,422.208 145.383,456.505 " fill="#1d1d9b" stroke="white" stroke-width="2" />
<polygon points="93.8585,465.08 81.1588,512 81.1588,512 50.6428,512 50.6428,512 40.8196,464.479 40.8196,464.479 56.4847,448.312 56.4847,448.312 83.763,450.925 83.763,450.925 93.8585,465.08 " fill="#1d1d9b" stroke="white" stroke-width="2" />
<polygon points="471.033,512 464.134,457.664 464.134,457.664 466.163,455.01 466.163,455.01 512,453.6 512,453.6 512,512 512,512 471.033,512 " fill="#1d1d9b" stroke="white" stroke-width="2" />
<polygon points="373.762,466.613 373.635,512 373.635,512 325.108,512 325.108,512 325.056,466.776 325.056,466.776 352.22,453.999 352.22,453.999 373.762,466.613 " fill="#1d1d9b" stroke="white" stroke-width="2" />
<polygon points="179.612,464.074 179.552,512 179.552,512 135.64,512 135.64,512 131.054,470.272 131.054,470.272 145.383,456.505 145.383,456.505 179.612,464.074 " fill="#1d1d9b" stroke="white" stroke-width="2" />
<polygon points="325.056,466.776 325.108,512 325.108,512 276.501,512 276.501,512 276.111,466.461 276.111,466.461 300.19,454.361 300.19,454.361 325.056,466.776 " fill="#1d1d9b" stroke="white" stroke-width="2" />
<polygon points="227.519,468.366 227.154,512 227.154,512 179.552,512 179.552,512 179.612,464.074 179.612,464.074 194.401,454.061 194.401,454.061 227.519,468.366 " fill="#1d1d9b" stroke="white" stroke-width="2" />
<polygon points="422.441,467.923 420.721,512 420.721,512 373.635,512 373.635,512 373.762,466.613 373.762,466.613 405.107,454.711 405.107,454.711 422.441,467.923 " fill="#1d1d9b" stroke="white" stroke-width="2" />
<polygon points="276.111,466.461 276.501,512 276.501,512 227.154,512 227.154,512 227.519,468.366 227.519,468.366 250.366,454.912 250.366,454.912 276.111,466.461 " fill="#1d1d9b" stroke="white" stroke-width="2" />
<polygon points="420.721,512 422.441,467.923 422.441,467.923 464.134,457.664 464.134,457.664 471.033,512 471.033,512 420.721,512 " fill="#1d1d9b" stroke="white" stroke-width="2" />
<polygon points="0,462.748 40.8196,464.479 40.8196,464.479 50.6428,512 50.6428,512 0,512 0,512 0,462.748 " fill="#1d1d9b" stroke="white" stroke-width="2" />
<polygon points="81.1588,512 93.8585,465.08 93.8585,465.08 131.054,470.272 131.054,470.272 135.64,512 135.64,512 81.1588,512 " fill="#1d1d9b" stroke="white" stroke-width="2" />
<circle cx="424.056" cy="21.1697" r="1" fill="red"/>
<circle cx="424.039" cy="21.1661" r="1" fill="yellow"/>
<circle cx="133.4" cy="22.405" r="1" fill="red"/>
<circle cx="133.326" cy="22.4127" r="1" fill="yellow"/>
<circle cx="306.712" cy="23.0376" r="1" fill="red"/>
<circle cx="306.659" cy="23.035" r="1" fill="yellow"/>
<circle cx="246.658" cy="23.1576" r="1" fill="red"/>
<circle cx="246.587" cy="23.1525" r="1" fill="yellow"/>
<circle cx="25.5226" cy="23.7275" r="1" fill="red"/>
<circle cx="25.4945" cy="23.7398" r="1" fill="yellow"/>
<circle cx="363.008" cy="24.0148" r="1" fill="red"/>
<circle cx="362.974" cy="24.0117" r="1" fill="yellow"/>
<circle cx="191.533" cy="24.8763" r="1" fill="red"/>
<circle cx="191.448" cy="24.8898" r="1" fill="yellow"/>
<circle cx="484.801" cy="26.9157" r="1" fill="red"/>
<circle cx="484.797" cy="26.9142" r="1" fill="yellow"/>
<circle cx="76.5175" cy="28.8834" r="1" fill="red"/>
<circle cx="76.4543" cy="28.8828" r="1" fill="yellow"/>
<circle cx="276.625" cy="63.6085" r="1" fill="red"/>
<circle cx="276.558" cy="63.6009" r="1" fill="yellow"/>
<circle cx="393.058" cy="64.9948" r="1" fill="red"/>
<circle cx="393.043" cy="64.9815" r="1" fill="yellow"/>
<circle cx="445.026" cy="66.3942" r="1" fill="red"/>
<circle cx="445.018" cy="66.3867" r="1" fill="yellow"/>
<circle cx="162.987" cy="68.4891" r="1" fill="red"/>
<circle cx="162.853" cy="68.5184" r="1" fill="yellow"/>
<circle cx="111.69" cy="69.8697" r="1" fill="red"/>
<circle cx="111.529" cy="69.8711" r="1" fill="yellow"/>
<circle cx="26.6537" cy="72.5803" r="1" fill="red"/>
<circle cx="26.6791" cy="72.6112" r="1" fill="yellow"/>
<circle cx="331.696" cy="73.8039" r="1" fill="red"/>
<circle cx="331.658" cy="73.7853" r="1" fill="yellow"/>
<circle cx="223.136" cy="75.3044" r="1" fill="red"/>
<circle cx="223.059" cy="75.2901" r="1" fill="yellow"/>
<circle cx="488.719" cy="86.6451" r="1" fill="red"/>
<circle cx="488.716" cy="86.6438" r="1" fill="yellow"/>
<circle cx="72.1194" cy="96.0689" r="1" fill="red"/>
<circle cx="72.0899" cy="96.2242" r="1" fill="yellow"/>
<circle cx="375.484" cy="107.377" r="1" fill="red"/>
<circle cx="375.463" cy="107.352" r="1" fill="yellow"/>
<circle cx="279.106" cy="109.946" r="1" fill="red"/>
<circle cx="279.077" cy="109.929" r="1" fill="yellow"/>
<circle cx="182.578" cy="111.596" r="1" fill="red"/>
<circle cx="182.549" cy="111.592" r="1" fill="yellow"/>
<circle cx="431.942" cy="117.037" r="1" fill="red"/>
<circle cx="431.936" cy="117.028" r="1" fill="yellow"/>
<circle cx="128.297" cy="122.163" r="1" fill="red"/>
<circle cx="128.267" cy="122.187" r="1" fill="yellow"/>
<circle cx="25.2114" cy="126.121" r="1" fill="red"/>
<circle cx="25.1932" cy="126.182" r="1" fill="yellow"/>
<circle cx="328.165" cy="130.906" r="1" fill="red"/>
<circle cx="328.148" cy="130.878" r="1" fill="yellow"/>
<circle cx="231.531" cy="132.639" r="1" fill="red"/>
<circle cx="231.51" cy="132.623" r="1" fill="yellow"/>
<circle cx="485.396" cy="141.177" r="1" fill="red"/>
<circle cx="485.397" cy="141.178" r="1" fill="yellow"/>
<circle cx="77.8629" cy="150.106" r="1" fill="red"/>
<circle cx="77.8561" cy="150.224" r="1" fill="yellow"/>
<circle cx="383.05" cy="154.383" r="1" fill="red"/>
<circle cx="383.054" cy="154.355" r="1" fill="yellow"/>
<circle cx="179.52" cy="159.707" r="1" fill="red"/>
<circle cx="179.51" cy="159.707" r="1" fill="yellow"/>
<circle cx="280.918" cy="163.704" r="1" fill="red"/>
<circle cx="280.908" cy="163.683" r="1" fill="yellow"/>
<circle cx="435.904" cy="171.415" r="1" fill="red"/>
<circle cx="435.911" cy="171.413" r="1" fill="yellow"/>
<circle cx="128.391" cy="177.613" r="1" fill="red"/>
<circle cx="128.398" cy="177.653" r="1" fill="yellow"/>
<circle cx="26.3654" cy="178.302" r="1" fill="red"/>
<circle cx="26.3639" cy="178.37" r="1" fill="yellow"/>
<circle cx="332.564" cy="184.335" r="1" fill="red"/>
<circle cx="332.568" cy="184.297" r="1" fill="yellow"/>
<circle cx="231.389" cy="187.146" r="1" fill="red"/>
<circle cx="231.384" cy="187.136" r="1" fill="yellow"/>
<circle cx="486.885" cy="196.383" r="1" fill="red"/>
<circle cx="486.886" cy="196.393" r="1" fill="yellow"/>
<circle cx="77.5697" cy="203.916" r="1" fill="red"/>
<circle cx="77.5768" cy="204.006" r="1" fill="yellow"/>
<circle cx="385.189" cy="204.036" r="1" fill="red"/>
<circle cx="385.198" cy="204.011" r="1" fill="yellow"/>
<circle cx="180.697" cy="210.326" r="1" fill="red"/>
<circle cx="180.702" cy="210.336" r="1" fill="yellow"/>
<circle cx="283.184" cy="218.347" r="1" fill="red"/>
<circle cx="283.183" cy="218.319" r="1" fill="yellow"/>
<circle cx="437.966" cy="225.381" r="1" fill="red"/>
<circle cx="437.966" cy="225.388" r="1" fill="yellow"/>
<circle cx="25.9372" cy="230.455" r="1" fill="red"/>
<circle cx="25.9382" cy="230.517" r="1" fill="yellow"/>
<circle cx="128.564" cy="231.082" r="1" fill="red"/>
<circle cx="128.574" cy="231.126" r="1" fill="yellow"/>
<circle cx="334.224" cy="237.508" r="1" fill="red"/>
<circle cx="334.224" cy="237.466" r="1" fill="yellow"/>
<circle cx="233.966" cy="240.646" r="1" fill="red"/>
<circle cx="233.968" cy="240.64" r="1" fill="yellow"/>
<circle cx="487.948" cy="252.226" r="1" fill="red"/>
<circle cx="487.94" cy="252.238" r="1" fill="yellow"/>
<circle cx="388.726" cy="253.345" r="1" fill="red"/>
<circle cx="388.711" cy="253.325" r="1" fill="yellow"/>
<circle cx="76.4804" cy="256.788" r="1" fill="red"/>
<circle cx="76.4863" cy="256.856" r="1" fill="yellow"/>
<circle cx="179.934" cy="260.589" r="1" fill="red"/>
<circle cx="179.944" cy="260.602" r="1" fill="yellow"/>
<circle cx="286.729" cy="276.266" r="1" fill="red"/>
<circle cx="286.725" cy="276.237" r="1" fill="yellow"/>
<circle cx="441.726" cy="279.806" r="1" fill="red"/>
<circle cx="441.69" cy="279.82" r="1" fill="yellow"/>
<circle cx="25.3186" cy="282.828" r="1" fill="red"/>
<circle cx="25.3193" cy="282.88" r="1" fill="yellow"/>
<circle cx="125.797" cy="283.41" r="1" fill="red"/>
<circle cx="125.808" cy="283.449" r="1" fill="yellow"/>
<circle cx="343.12" cy="288.853" r="1" fill="red"/>
<circle cx="343.081" cy="288.825" r="1" fill="yellow"/>
<circle cx="229.878" cy="291.535" r="1" fill="red"/>
<circle cx="229.892" cy="291.537" r="1" fill="yellow"/>
<circle cx="396.358" cy="301.859" r="1" fill="red"/>
<circle cx="396.288" cy="301.847" r="1" fill="yellow"/>
<circle cx="486.848" cy="309.374" r="1" fill="red"/>
<circle cx="486.839" cy="309.368" r="1" fill="yellow"/>
<circle cx="74.0885" cy="310.015" r="1" fill="red"/>
<circle cx="74.0927" cy="310.067" r="1" fill="yellow"/>
<circle cx="173.743" cy="310.41" r="1" fill="red"/>
<circle cx="173.765" cy="310.419" r="1" fill="yellow"/>
<circle cx="269.181" cy="331.28" r="1" fill="red"/>
<circle cx="269.234" cy="331.258" r="1" fill="yellow"/>
<circle cx="320.124" cy="333.547" r="1" fill="red"/>
<circle cx="320.184" cy="333.553" r="1" fill="yellow"/>
<circle cx="25.4372" cy="335.689" r="1" fill="red"/>
<circle cx="25.4394" cy="335.73" r="1" fill="yellow"/>
<circle cx="120.57" cy="336.328" r="1" fill="red"/>
<circle cx="120.581" cy="336.357" r="1" fill="yellow"/>
<circle cx="436.116" cy="338.247" r="1" fill="red"/>
<circle cx="436.097" cy="338.24" r="1" fill="yellow"/>
<circle cx="373.982" cy="342.556" r="1" fill="red"/>
<circle cx="374.021" cy="342.593" r="1" fill="yellow"/>
<circle cx="216.478" cy="343.134" r="1" fill="red"/>
<circle cx="216.518" cy="343.134" r="1" fill="yellow"/>
<circle cx="164.238" cy="361.18" r="1" fill="red"/>
<circle cx="164.266" cy="361.165" r="1" fill="yellow"/>
<circle cx="489.516" cy="364.559" r="1" fill="red"/>
<circle cx="489.515" cy="364.54" r="1" fill="yellow"/>
<circle cx="75.2364" cy="365.538" r="1" fill="red"/>
<circle cx="75.2506" cy="365.577" r="1" fill="yellow"/>
<circle cx="298.101" cy="383.406" r="1" fill="red"/>
<circle cx="298.122" cy="383.392" r="1" fill="yellow"/>
<circle cx="248.256" cy="386.076" r="1" fill="red"/>
<circle cx="248.275" cy="386.064" r="1" fill="yellow"/>
<circle cx="402.023" cy="387.291" r="1" fill="red"/>
<circle cx="402.04" cy="387.34" r="1" fill="yellow"/>
<circle cx="348.649" cy="387.321" r="1" fill="red"/>
<circle cx="348.669" cy="387.345" r="1" fill="yellow"/>
<circle cx="25.1717" cy="387.472" r="1" fill="red"/>
<circle cx="25.1758" cy="387.499" r="1" fill="yellow"/>
<circle cx="449.918" cy="390.679" r="1" fill="red"/>
<circle cx="449.928" cy="390.667" r="1" fill="yellow"/>
<circle cx="125.336" cy="393.652" r="1" fill="red"/>
<circle cx="125.373" cy="393.666" r="1" fill="yellow"/>
<circle cx="196.675" cy="394.428" r="1" fill="red"/>
<circle cx="196.677" cy="394.429" r="1" fill="yellow"/>
<circle cx="72.6855" cy="419.595" r="1" fill="red"/>
<circle cx="72.6998" cy="419.617" r="1" fill="yellow"/>
<circle cx="488.041" cy="426.233" r="1" fill="red"/>
<circle cx="488.049" cy="426.216" r="1" fill="yellow"/>
<circle cx="167.76" cy="434.332" r="1" fill="red"/>
<circle cx="167.783" cy="434.352" r="1" fill="yellow"/>
<circle cx="274.988" cy="435.077" r="1" fill="red"/>
<circle cx="274.998" cy="435.066" r="1" fill="yellow"/>
<circle cx="325.82" cy="435.649" r="1" fill="red"/>
<circle cx="325.821" cy="435.653" r="1" fill="yellow"/>
<circle cx="378.828" cy="435.939" r="1" fill="red"/>
<circle cx="378.834" cy="435.967" r="1" fill="yellow"/>
<circle cx="223.474" cy="438.235" r="1" fill="red"/>
<circle cx="223.492" cy="438.227" r="1" fill="yellow"/>
<circle cx="24.9157" cy="438.817" r="1" fill="red"/>
<circle cx="24.9187" cy="438.83" r="1" fill="yellow"/>
<circle cx="433.504" cy="439.407" r="1" fill="red"/>
<circle cx="433.528" cy="439.42" r="1" fill="yellow"/>
<circle cx="116.295" cy="444.358" r="1" fill="red"/>
<circle cx="116.313" cy="444.363" r="1" fill="yellow"/>
<circle cx="66.9526" cy="479.556" r="1" fill="red"/>
<circle cx="66.9574" cy="479.563" r="1" fill="yellow"/>
<circle cx="489.778" cy="482.413" r="1" fill="red"/>
<circle cx="489.776" cy="482.404" r="1" fill="yellow"/>
<circle cx="349.52" cy="486.028" r="1" fill="red"/>
<circle cx="349.517" cy="486.033" r="1" fill="yellow"/>
<circle cx="156.345" cy="486.03" r="1" fill="red"/>
<circle cx="156.354" cy="486.037" r="1" fill="yellow"/>
<circle cx="300.64" cy="486.091" r="1" fill="red"/>
<circle cx="300.639" cy="486.09" r="1" fill="yellow"/>
<circle cx="202.803" cy="486.096" r="1" fill="red"/>
<circle cx="202.815" cy="486.096" r="1" fill="yellow"/>
<circle cx="397.895" cy="486.164" r="1" fill="red"/>
<circle cx="397.897" cy="486.169" r="1" fill="yellow"/>
<circle cx="251.915" cy="486.51" r="1" fill="red"/>
<circle cx="251.922" cy="486.506" r="1" fill="yellow"/>
<circle cx="445.489" cy="488.016" r="1" fill="red"/>
<circle cx="445.488" cy="488.027" r="1" fill="yellow"/>
<circle cx="22.804" cy="488.687" r="1" fill="red"/>
<circle cx="22.8047" cy="488.69" r="1" fill="yellow"/>
<circle cx="109.775" cy="491.156" r="1" fill="red"/>
<circle cx="109.782" cy="491.155" r="1" fill="yellow"/>
</svg>